<svg xmlns="http://www.w3.org/2000/svg" version="1.1" xmlns:xlink="http://www.w3.org/1999/xlink" xmlns:svgjs="http://svgjs.com/svgjs" width="1440" height="560" preserveAspectRatio="none" viewBox="0 0 1440 560"><g mask="url(&quot;#SvgjsMask2908&quot;)" fill="none"><rect width="1440" height="560" x="0" y="0" fill="url(#SvgjsLinearGradient2909)"></rect><path d="M1440 0L1087.19 0L1440 237.03z" fill="rgba(255, 255, 255, .1)"></path><path d="M1087.19 0L1440 237.03L1440 367.25L923.7900000000001 0z" fill="rgba(255, 255, 255, .075)"></path><path d="M923.79 0L1440 367.25L1440 388.05L480.83 0z" fill="rgba(255, 255, 255, .05)"></path><path d="M480.8299999999999 0L1440 388.05L1440 489.14L314.62999999999994 0z" fill="rgba(255, 255, 255, .025)"></path><path d="M0 560L11.54 560L0 412.96000000000004z" fill="rgba(0, 0, 0, .1)"></path><path d="M0 412.96000000000004L11.54 560L715.66 560L0 325.14000000000004z" fill="rgba(0, 0, 0, .075)"></path><path d="M0 325.14L715.66 560L1163.1599999999999 560L0 163.39999999999998z" fill="rgba(0, 0, 0, .05)"></path><path d="M0 163.39999999999998L1163.1599999999999 560L1254.6899999999998 560L0 95.49999999999997z" fill="rgba(0, 0, 0, .025)"></path></g><defs><mask id="SvgjsMask2908"><rect width="1440" height="560" fill="#ffffff"></rect></mask><linearGradient x1="15.28%" y1="-39.29%" x2="84.72%" y2="139.29%" gradientUnits="userSpaceOnUse" id="SvgjsLinearGradient2909"><stop stop-color="rgba(170, 65, 40, 1)" offset="0"></stop><stop stop-color="rgba(205, 108, 237, 1)" offset="1"></stop></linearGradient></defs></svg>