<svg xmlns="http://www.w3.org/2000/svg" version="1.1" xmlns:xlink="http://www.w3.org/1999/xlink" xmlns:svgjs="http://svgjs.com/svgjs" width="1440" height="560" preserveAspectRatio="none" viewBox="0 0 1440 560"><g mask="url(&quot;#SvgjsMask1026&quot;)" fill="none"><path d="M1488 560L0 560 L0 401.27Q52.28 333.55, 120 385.84Q140.96 334.8, 192 355.76Q261.77 305.53, 312 375.31Q354.59 345.9, 384 388.5Q403.83 336.33, 456 356.16Q509.3 289.46, 576 342.76Q644.34 339.1, 648 407.44Q659.28 346.72, 720 358Q750.88 316.88, 792 347.75Q857.46 341.21, 864 406.66Q883.88 354.55, 936 374.43Q989.97 308.4, 1056 362.37Q1113.65 348.02, 1128 405.67Q1154.59 360.25, 1200 386.84Q1226.24 341.07, 1272 367.31Q1295.44 318.75, 1344 342.19Q1387.38 313.57, 1416 356.95Q1472.6 341.54, 1488 398.14z" fill="rgba(235, 194, 215, 1)"></path><path d="M1560 560L0 560 L0 459.45Q45 384.45, 120 429.46Q162.84 352.3, 240 395.15Q333.64 368.79, 360 462.44Q371.18 401.62, 432 412.8Q497.91 358.71, 552 424.62Q631.79 384.41, 672 464.2Q672.31 392.5, 744 392.81Q809.1 337.91, 864 403.02Q932.98 400, 936 468.98Q977.59 390.57, 1056 432.16Q1084.59 388.75, 1128 417.33Q1186.36 403.69, 1200 462.05Q1232.55 374.6, 1320 407.15Q1390.58 357.73, 1440 428.31Q1516.92 385.23, 1560 462.15z" fill="rgba(241, 164, 179, 1)"></path><path d="M1488 560L0 560 L0 502.64Q38.65 469.29, 72 507.95Q137.08 453.03, 192 518.11Q237.4 443.51, 312 488.91Q353.63 458.54, 384 500.16Q449.4 445.56, 504 510.96Q546.65 433.61, 624 476.26Q665.92 446.19, 696 488.11Q719.29 439.4, 768 462.69Q797.42 420.11, 840 449.53Q937.22 426.75, 960 523.96Q997.49 441.45, 1080 478.94Q1102.21 429.15, 1152 451.36Q1195.57 422.93, 1224 466.5Q1289.11 459.61, 1296 524.71Q1310.42 467.13, 1368 481.56Q1433.36 426.92, 1488 492.28z" fill="rgba(235, 194, 202, 1)"></path><path d="M1488 560L0 560 L0 572.61Q50.23 502.84, 120 553.06Q160.35 473.41, 240 513.76Q287.13 488.89, 312 536.03Q366.74 470.77, 432 525.51Q488.57 510.08, 504 566.64Q536.62 479.25, 624 511.87Q704.34 472.21, 744 552.55Q815.83 504.38, 864 576.2Q891.71 483.91, 984 511.62Q1060.73 468.35, 1104 545.08Q1129.71 498.79, 1176 524.5Q1260 488.5, 1296 572.5Q1314.31 518.81, 1368 537.12Q1438.3 487.42, 1488 557.72z" fill="white"></path></g><defs><mask id="SvgjsMask1026"><rect width="1440" height="560" fill="#ffffff"></rect></mask></defs></svg>